<?xml version="1.0" encoding="UTF-8" standalone="no"?>
<!-- Created with Inkscape (http://www.inkscape.org/) -->

<svg
   width="3394.3547"
   height="3340.4944"
   viewBox="0 0 4699.3567 4624.7891"
   version="1.1"
   id="svg5"
   xml:space="preserve"
   inkscape:version="1.2.2 (b0a8486, 2022-12-01)"
   sodipodi:docname="ink_black.svg"
   xmlns:inkscape="http://www.inkscape.org/namespaces/inkscape"
   xmlns:sodipodi="http://sodipodi.sourceforge.net/DTD/sodipodi-0.dtd"
   xmlns="http://www.w3.org/2000/svg"
   xmlns:svg="http://www.w3.org/2000/svg"><sodipodi:namedview
     id="namedview7"
     pagecolor="#ffffff"
     bordercolor="#000000"
     borderopacity="0.25"
     inkscape:showpageshadow="2"
     inkscape:pageopacity="0"
     inkscape:pagecheckerboard="0"
     inkscape:deskcolor="#d1d1d1"
     inkscape:document-units="px"
     showgrid="false"
     inkscape:zoom="0.09591687"
     inkscape:cx="3450.9049"
     inkscape:cy="2882.7046"
     inkscape:window-width="1028"
     inkscape:window-height="877"
     inkscape:window-x="0"
     inkscape:window-y="25"
     inkscape:window-maximized="0"
     inkscape:current-layer="layer1" /><defs
     id="defs2" /><g
     inkscape:label="Layer 1"
     inkscape:groupmode="layer"
     id="layer1"
     transform="translate(253.30852,1311.228)"><path
       style="fill:#000000;stroke-width:5.93333"
       d="m 2031.538,3303.7269 c -5.1107,-13.7544 12.7399,-48.9494 27.2411,-53.7013 25.8111,-8.4605 56.54,34.7116 39.6812,55.7563 -9.1785,11.4613 -62.5059,9.823 -66.9223,-2.0577 z m 281.6385,-19.8228 c -7.911,-15.8008 -7.7539,-18.2326 1.7571,-27.1328 13.103,-12.2458 17.6676,-12.2352 30.8427,0.048 9.9746,9.3231 10.0134,10.786 0.6484,27.1326 -12.5338,21.9113 -22.2705,21.8881 -33.2723,-0.048 z m -648.5362,-442.0502 c -4.7255,-19.4256 0.3858,-29.711 11.9336,-25.052 10.8141,4.2843 10.9137,14.5847 0.3854,29.5861 -7.9797,11.2685 -8.4303,11.1026 -12.2275,-4.5341 z m 768.0268,-34.2912 c -15.8496,-2.9154 -23.1148,-8.9753 -33.318,-27.7923 -12.1241,-22.3501 -12.4033,-25.1423 -3.9578,-39.1909 13.8747,-23.07 31.0148,-36.2297 47.189,-36.2297 18.5075,0 54.1486,38.8671 54.1486,59.0531 0,13.26 -30.7362,50.6432 -40.0302,48.6826 -2.0631,-0.4399 -12.8805,-2.4729 -24.0316,-4.5228 z M 366.92634,2776.1214 c -34.06466,-13.2456 -12.27014,-47.9344 49.13165,-78.2066 47.75134,-23.5411 85.18787,-23.2774 57.55322,0.4052 -4.81743,4.1288 -8.7559,10.6693 -8.7559,14.5351 0,8.5168 -43.07265,46.4572 -67.22478,59.2137 -11.81013,6.2386 -21.71934,7.5464 -30.70419,4.0523 z M 671.05589,2489.589 c -2.57077,-6.9131 2.48313,-15.3907 16.18214,-27.1182 26.78273,-22.9359 34.52093,-22.06 34.52093,3.9073 0,21.5164 -1.5018,22.9716 -30.7818,29.6021 -11.95279,2.7079 -17.16454,1.036 -19.92127,-6.3912 z M 2152.3116,2315.5418 c -8.0257,-9.9884 -8.0367,-11.1045 -2.8651,-247.2934 2.0642,-92.8522 0.9926,-244.7935 -2.2911,-337.6461 -6.2609,-176.6096 -5.3863,-170.6395 -38.8953,-265.5029 -5.378,-15.2238 -15.3914,-28.4758 -26.7707,-35.4154 -17.5527,-10.7084 -19.3672,-10.7181 -52.7273,-0.2747 -19.0043,5.9416 -40.3817,16.5283 -47.5065,23.5251 -7.1236,6.997 -31.3467,25.6771 -53.8234,41.5114 -68.0128,47.9095 -79.8002,57.1204 -131.3746,102.678 -27.2943,24.1124 -64.0734,53.7201 -81.7376,65.7943 -17.6634,12.0735 -38.681,27.083 -46.711,33.3528 -8.0291,6.2706 -20.7082,14.7328 -28.1761,18.8062 -7.4682,4.0727 -18.7913,12.7867 -25.1592,19.3634 -12.5943,13.0051 -48.8424,13.8927 -48.8424,1.1954 0,-3.87 19.7034,-24.4938 43.7889,-45.8317 24.0891,-21.3376 50.3597,-50.3849 58.3888,-64.5494 13.756,-24.2755 33.4444,-48.0774 104.8367,-126.7737 16.549,-18.2389 41.107,-49.0649 54.5808,-68.5023 13.4772,-19.4382 33.039,-44.4444 43.4793,-55.5716 22.8247,-24.3385 25.8233,-52.5986 6.6963,-63.1703 -9.9476,-5.4961 -18.546,-3.9086 -45.252,8.3521 -46.3026,21.2582 -137.4097,29.9587 -230.595,22.0208 -39.0253,-3.3258 -77.5279,-7.7167 -85.5538,-9.762 l -14.5929,-3.7179 17.511,-8.0078 c 9.6343,-4.4049 33.5481,-8.1313 53.1367,-8.2802 50.4703,-0.3869 70.5784,-9.1311 84.1476,-36.606 6.2419,-12.6196 19.5702,-28.9963 29.6284,-36.393 36.5078,-26.8431 39.7396,-69.0834 6.2874,-82.0954 -14.6458,-5.6969 -13.8478,-6.2941 13.6419,-10.2344 43.0514,-6.1722 58.056,-15.7154 60.1916,-38.2905 1.0321,-11.1015 -2.5971,-25.9865 -8.7588,-35.6111 -5.8103,-9.095 -19.7576,-35.571 -31,-58.836 -18.4393,-38.17578 -22.8549,-43.11068 -45.2473,-50.62238 -21.844,-7.3264 -24.8193,-10.4743 -24.8193,-26.3044 0,-22.3464 -7.9574,-38.7372 -31.0372,-63.9174 -20.2084,-22.0469 -38.866,-24.8654 -71.4691,-10.7981 -11.2121,4.8398 -23.608,7.7791 -27.5469,6.5333 -3.9303,-1.2438 -14.1523,-3.8413 -22.7096,-5.7683 -15.1273,-3.4078 -63.7215,-41.2106 -125.9768,-98.0082 -16.835,-15.3535 -36.5389,-31.977 -43.7925,-36.9403 -7.2578,-4.96423 -15.8186,-12.25323 -19.0316,-16.19873 -3.2091,-3.9456 -16.3452,-14.3726 -29.1927,-23.1715 -12.8423,-8.7991 -28.6083,-19.6571 -35.0294,-24.1304 -69.7155,-48.5479 -136.5202,-74.3145 -213.1154,-82.1934 -91.38554,-9.4005 -123.67144,-24.3415 -131.43194,-60.8206 -2.6286,-12.3207 0.581,-23.684 11.9247,-42.22817 l 15.5096,-25.37134 38.0487,3.15512 c 35.98104,2.98394 39.68274,4.7691 68.05804,32.84972 16.5024,16.33287 47.5554,38.63697 69.0086,49.56507 37.795,19.2517 41.9662,19.9941 134.2926,23.8888 l 95.2871,4.0201 29.189,22.5129 c 16.0591,12.3824 38.4252,27.2204 49.7056,32.9744 11.2798,5.7538 28.3596,16.1899 37.9525,23.1908 9.5918,7.0013 27.5493,16.1162 39.8996,20.2556 12.3541,4.1396 29.4292,11.2826 37.9513,15.8729 27.1726,14.6413 63.1267,10.6185 94.8593,-10.6133 29.1506,-19.507 30.8735,-22.3115 37.0812,-60.3996 l 3.5901,-22.155 32.2988,3.4422 c 31.8169,3.3913 32.6733,3.0626 57.415,-22.0141 33.6815,-34.1335 42.1771,-61.3595 32.386,-103.79517 -8.8851,-38.50062 -42.704,-106.75092 -58.5956,-118.24548 -6.2266,-4.50182 -11.3187,-13.71277 -11.3187,-20.46778 0,-7.21048 -4.8237,-13.58356 -11.6813,-15.43454 -6.4175,-1.73277 -11.6734,-5.67418 -11.6734,-8.75421 0,-3.0796 -7.1166,-12.93814 -15.8188,-21.90653 -52.3156,-53.93932 -100.9558,-111.56491 -100.9558,-119.60234 0,-5.13149 -5.2377,-13.83514 -11.6432,-19.34033 -8.3086,-7.14219 -10.0702,-12.55772 -6.1502,-18.89714 4.6638,-7.54123 7.5898,-6.85648 19.321,4.52197 7.6015,7.37458 16.8501,13.40794 20.5558,13.40794 3.7061,0 15.3645,12.55896 25.8996,27.90844 10.5398,15.34967 27.6992,36.19828 38.1391,46.33015 10.4327,10.13145 18.9744,21.67986 18.9744,25.66252 0,3.98266 6.5663,11.68576 14.5962,17.11811 8.0292,5.43172 14.5964,13.7298 14.5964,18.4399 0,4.70949 4.8359,12.10817 10.7529,16.44148 5.9138,4.33339 14.1226,14.66166 18.2446,22.95225 4.1254,8.29061 14.3934,22.55393 22.8204,31.69707 8.4318,9.14298 21.8969,23.73912 29.9225,32.43493 19.6464,21.28148 76.0833,69.0413 96.9676,82.05745 9.2867,5.79084 28.7153,18.46534 43.1628,28.16604 33.6693,22.59997 53.1668,22.87407 83.708,1.1786 32.9433,-23.4048 53.4116,-65.28594 53.3732,-109.20787 0,-18.23942 -2.1776,-37.70775 -4.7828,-43.26442 -3.4769,-7.3988 -0.7642,-12.80484 10.1608,-20.1995 14.0967,-9.53864 16.3007,-9.42798 39.8663,2.00746 40.8093,19.80002 46.8141,20.10227 65.4143,3.28578 11.3488,-10.26152 22.7862,-32.00749 33.979,-64.57013 20.1356,-58.58014 26.6139,-90.76576 33.3451,-165.648475 2.7884,-30.94182 6.8147,-58.06992 8.9614,-60.28447 10.119,-10.44997 20.4561,21.70748 20.4561,63.62312 0,50.969925 9.4204,79.214745 31.3738,94.065945 14.1723,9.58924 18.1689,9.71578 48.5257,1.52803 18.1948,-4.90687 35.251,-7.53842 37.9026,-5.84749 9.8216,6.26939 4.2474,14.50307 -15.62,23.07636 -18.5617,8.0081 -20.4335,11.0466 -20.4335,33.10348 0,49.48263 46.5663,55.42176 129.0904,16.46526 30.2051,-14.25612 45.4585,-25.00956 47.6235,-33.56986 1.9876,-7.83566 7.9228,-12.59574 15.7119,-12.59574 8.7443,0 15.0477,-6.24177 20.8958,-20.6907 4.6034,-11.3797 10.6689,-22.15766 13.4807,-23.95184 5.4134,-3.45479 50.6924,-96.074805 69.922,-143.024045 6.2837,-15.33846 14.5432,-47.89725 18.3587,-72.35287 12.5525,-80.524105 32.5238,-138.865195 55.3488,-161.712795 19.0844,-19.10213 22.14,-20.18349 42.3212,-14.9789 24.1812,6.23416 29.4149,16.97808 30.4077,62.43913 0.3858,19.03781 -5.4355,39.76703 -20.4146,72.352635 -31.198,67.87173 -41.5536,92.2532799 -46.2944,108.97867 -2.3304,8.29081 -10.2071,25.92682 -17.4719,39.19119 -7.2587,13.265 -16.5185,34.97052 -20.5718,48.235305 -4.057,13.26458 -10.6921,29.5443 -14.7487,36.1766 -4.0573,6.63186 -11.3381,26.08991 -16.1778,43.23899 -4.8473,17.14937 -11.8842,37.12032 -15.6509,44.3798 -3.7433,7.25937 -12.0219,32.50976 -18.3552,56.11171 -6.3337,23.60232 -13.9428,45.93465 -16.9108,49.62805 -2.9797,3.69269 -9.5009,29.07135 -14.524,56.39652 -7.3841,40.19397 -7.8504,56.016 -2.4447,82.84607 3.667,18.23977 5.2031,39.21157 3.4,46.60377 -6.6626,27.4236 8.1632,59.3322 44.258,95.2445 35.1867,35.003 59.6273,46.9927 95.94,47.0595 10.0469,0.016 28.4367,4.7818 40.8743,10.5852 33.3758,15.5779 246.9913,15.4666 294.1038,-0.1242 17.6641,-5.8559 48.8468,-13.4069 69.2917,-16.7809 31.2361,-5.1538 39.4641,-4.5874 51.4819,3.5419 11.0167,7.4552 12.8046,11.5324 7.8003,17.7647 -10.5091,13.078 -92.8723,37.8323 -140.2482,42.1516 -29.3336,2.67273 -55.3557,9.57063 -78.8261,20.88943 -19.2642,9.2935 -58.1292,25.9375 -86.3665,36.9865 -41.5541,16.2617 -54.9663,24.7432 -70.3998,44.5166 -31.3319,40.1413 -56.3445,81.5897 -56.3445,93.3666 0,16.4392 43.6775,54.6638 62.465,54.6638 8.942,0 22.4994,-6.7084 31.458,-15.5692 15.0112,-14.8529 16.5329,-15.1438 33.0499,-6.3238 27.0111,14.4254 203.5734,15.9972 246.7047,2.1957 17.6642,-5.6515 61.0142,-12.8772 96.3412,-16.0574 43.468,-3.9132 77.0043,-10.7621 103.7673,-21.1903 41.9054,-16.328 69.8569,-19.1503 94.37,-9.528 12.2192,4.7985 14.974,9.8448 14.974,27.44 0,19.1844 -2.4073,22.619 -21.8961,31.1747 -14.5428,6.3871 -34.6363,9.0029 -59.8442,7.7905 -64.3333,-3.0934 -123.3409,0.03 -175.1637,9.2682 -27.2976,4.8665 -71.5218,8.8574 -98.2891,8.8681 -39.82,0.03 -56.2533,3.1443 -90.4962,17.23238 -23.0165,9.4676 -51.5093,19.0504 -63.3244,21.2956 -34.6404,6.5839 -45.4931,19.8169 -51.3295,62.6081 -4.1718,30.5739 -10.2877,45.2265 -31.9475,76.5754 -30.6172,44.3058 -36.5609,65.5203 -26.8616,95.8702 7.8531,24.5696 49.8592,63.6554 84.4416,78.5705 12.5868,5.4288 26.5303,15.2434 30.9833,21.8097 4.4543,6.5663 12.9045,11.9385 18.7759,11.9385 15.3065,0 47.9837,15.1088 43.2502,19.9975 -8.0179,8.2825 -52.3918,3.8152 -72.47,-7.2961 -12.8161,-7.0949 -44.8388,-14.1752 -84.5747,-18.7024 -53.1407,-6.054 -70.5864,-5.8321 -103.2134,1.3154 -21.5985,4.7303 -42.6157,6.4046 -46.708,3.7214 -13.8508,-9.0756 -58.1484,-5.3601 -76.8237,6.4432 -10.0131,6.3285 -29.8423,14.7051 -44.0678,18.613 -41.9747,11.5306 -76.3012,59.4027 -76.3277,106.4523 0,23.7145 26.9349,122.1362 46.8031,170.9268 6.0695,14.9228 12.7999,36.6286 14.9429,48.2346 2.1411,11.607 7.9611,29.2433 12.9236,39.1918 9.2867,18.613 28.4818,89.1008 47.9604,176.1043 6.0966,27.2181 14.9325,55.7067 19.6389,63.3088 4.7061,7.6019 12.5184,27.8528 17.3624,45.0023 4.8427,17.1492 11.8799,37.1155 15.6394,44.3698 3.7431,7.2541 10.4015,35.9355 14.7595,63.7368 12.4192,79.2408 -4.2854,108.4388 -40.0109,69.9295 -17.9234,-19.3138 -50.634,-112.738 -50.9624,-145.5319 -0.3858,-34.0967 -14.4518,-94.2944 -39.6592,-169.1997 -12.8363,-38.1356 -26.4732,-85.6174 -30.3087,-105.5144 -3.8353,-19.8968 -11.6357,-47.0289 -17.3389,-60.294 -26.2131,-60.9924 -45.8174,-109.8016 -49.6449,-123.6022 -7.8536,-28.3075 -40.5347,-71.4779 -61.6323,-81.4175 -19.5475,-9.2082 -22.5499,-9.0559 -52.9345,2.6835 -17.7173,6.8445 -39.9189,20.8888 -49.3435,31.2082 -9.4228,10.3196 -27.6411,23.5897 -40.4873,29.4884 -12.8473,5.8984 -32.7378,19.8311 -44.2022,30.9615 -18.538,17.9966 -21.9383,26.2445 -30.7276,74.5017 -22.2253,122.0661 -29.8649,441.7162 -12.0371,503.7039 11.0085,38.2795 8.1554,79.5529 -6.6657,96.4659 -12.4192,14.1682 -16.5334,14.6205 -25.9926,2.8574 z m -1119.9345,-58.5735 c -3.8506,-3.9787 -7.0059,-18.3904 -7.0059,-32.0243 0,-27.6001 10.486,-42.6407 45.7602,-65.6347 28.9329,-18.8604 75.3998,-67.9786 88.9988,-94.0759 21.3154,-40.9085 56.9448,-73.966 133.823,-124.1543 17.6594,-11.5302 38.6815,-22.6016 46.7111,-24.6034 8.0257,-2.0072 17.8354,-6.2736 21.797,-9.4929 5.1721,-4.2044 8.8736,-1.3138 13.1366,10.2676 7.6898,20.8886 7.8202,20.0054 -5.447,37.423 -6.2607,8.2192 -15.6353,30.0524 -20.8345,48.5175 -12.9532,46.0102 -32.9668,69.8462 -85.8854,102.2737 -27.2639,16.7107 -68.8447,51.3762 -105.0964,87.623 -32.986,32.9861 -64.4056,62.4816 -69.8149,65.5454 -13.9579,7.9084 -47.8456,6.9036 -56.1426,-1.663 z m 2491.9686,-239.3004 c -11.09,-3.1589 -15.0355,-8.7999 -16.4224,-23.4731 -1.4897,-15.9389 0.8782,-20.5832 13.5877,-26.5694 19.1001,-8.9873 32.6383,-1.519 38.5401,21.2663 2.8653,11.0529 1.4527,19.0388 -4.4994,25.1639 -9.4166,9.7254 -9.6545,9.7524 -31.206,3.6123 z m -379.053,-223.8859 c -54.9324,-20.4016 -76.0037,-50.0045 -78.3986,-110.1459 -0.8019,-20.5951 -3.5149,-41.9413 -5.9858,-47.4361 -3.3231,-7.4001 4.0522,-18.8187 28.474,-44.034 38.9148,-40.1864 50.2866,-45.4602 98.0333,-45.4602 30.8579,0 39.8773,2.7382 63.2406,19.2015 50.3294,35.4646 70.7736,86.8012 57.9462,145.4809 -8.3435,38.1556 -19.1731,54.2069 -51.4712,76.3013 -32.1685,22.0022 -64.2869,23.7523 -111.8385,6.0925 z m -400.8892,-26.9017 c -5.2984,-8.3463 -13.3279,-15.1752 -17.8469,-15.1752 -10.9557,0 -60.5051,-47.5389 -60.5051,-58.0472 0,-26.9887 61.4068,8.272 96.0199,55.1381 14.7729,19.9989 14.852,20.6075 3.5523,26.8619 -9.6104,5.3116 -13.2128,3.821 -21.205,-8.7776 z m -419.2395,-31.5571 c -1.9868,-2.0434 -3.5909,-12.4309 -3.5909,-23.0825 0,-15.8339 3.2093,-20.7339 17.5186,-26.8591 9.6304,-4.1207 17.5529,-10.5549 17.6028,-14.2974 0.3855,-12.0118 11.4066,10.8212 11.4987,23.3418 0,12.5021 -36.6725,47.4533 -43.0214,40.8972 z m 1086.6969,0.7192 c -1.9099,-1.9809 -1.987,-7.6358 -0.3754,-12.5641 2.7126,-7.3035 4.2403,-7.4731 8.2659,-0.9164 8.6067,14.0194 2.4084,24.3353 -8.105,13.4825 z m -26.652,-123.5222 c -17.9195,-2.4889 -36.4926,-9.3698 -43.789,-16.2249 -6.9718,-6.5484 -18.5844,-15.0534 -25.8116,-18.901 -9.6993,-5.1639 -13.1335,-12.332 -13.1335,-27.3832 0,-11.2135 3.2848,-21.5375 7.2923,-22.9421 4.015,-1.4048 26.8207,4.204 50.6763,12.4636 90.4469,31.3155 108.5309,84.6159 24.7655,72.9876 z m -217.0272,-117.2163 c -8.03,-4.8817 -27.0384,-14.1915 -42.2417,-20.6886 -36.7486,-15.7024 -33.1429,-30.4091 7.4529,-30.4091 38.5322,0 54.3395,7.4162 68.4467,32.1143 l 12.0144,21.0244 -12.618,3.4953 c -16.6666,4.6174 -16.2386,4.6897 -33.0543,-5.5363 z m -135.7524,-63.6391 c -16.456,-9.8978 -11.8111,-17.6051 10.601,-17.6051 23.7299,0 45.4009,9.886 40.3056,18.3905 -4.5083,7.5367 -37.9257,7.0211 -50.9066,-0.7849 z m -1650.8951,-59.0584 c -36.4962,-10.7787 0,-34.451 42.2992,-27.4428 27.5576,4.5651 32.9211,12.9049 13.2591,20.624 -24.2487,9.5211 -39.9034,11.4427 -55.5583,6.8188 z m 87.5785,-183.9648 c 0,-4.9512 35.7096,-7.4466 38.5516,-2.6946 1.6432,2.7622 -6.3415,5.0244 -17.7712,5.0244 -11.4296,0 -20.7804,-1.051 -20.7804,-2.3306 z m -198.5151,-33.9958 c 0,-3.2341 9.6339,-5.8789 21.4071,-5.8789 25.0247,0 24.1803,2.7963 -2.4073,8.0274 -10.9026,2.1426 -18.9745,1.2318 -18.9745,-2.1498 z m 61.6166,-29.4817 c -1.8703,-3.1412 -0.9151,-7.2995 2.1007,-9.2407 3.0563,-1.9425 7.0672,-0.9585 8.9462,2.1811 1.8712,3.1416 0.9556,7.2995 -2.0997,9.2411 -3.0568,1.9427 -7.0682,0.9617 -8.9472,-2.1811 z m 2486.987,-66.9477 c -6.4252,-2.9565 -20.7306,-13.3216 -31.7973,-23.0334 -18.3476,-16.1075 -20.3151,-21.0271 -22.4014,-56.04378 -2.9025,-48.7716 3.9887,-66.6714 34.4189,-89.4343 20.7503,-15.5231 29.7385,-18.2892 59.4392,-18.2892 34.0672,0 35.7404,0.772 63.3479,29.2854 25.8995,26.7462 28.3597,31.7509 28.3597,57.7132 0,33.0146 -20.8033,74.83558 -46.6998,93.87908 -17.5035,12.8682 -62.713,16.0309 -84.6672,5.923 z M -210.16928,1040.812 c -23.98754,-15.1055 -43.13924,-43.64368 -43.13924,-64.28378 0,-42.8841 44.71341,-87.0252 88.15301,-87.0252 52.4507,0 94.540679,71.521 70.870673,120.42518 -17.642803,36.4533 -80.456083,53.1924 -115.884443,30.8838 z m 1571.26678,-30.2057 c -42.8644,-15.37818 -49.6297,-19.10278 -49.6297,-27.32458 0,-14.4718 25.9641,-20.4029 67.6328,-15.4499 47.4754,5.6431 61.0334,10.444 71.3701,25.2809 6.2838,9.01478 15.9066,10.94898 54.4927,10.94898 34.892,0 46.245,1.9255 44.4419,7.5364 -4.1217,12.7974 -152.0442,12.0177 -188.3078,-0.9902 z m 195.7606,-15.38638 c -8.8621,-11.0288 -1.0683,-15.2756 28.0585,-15.2756 29.1083,0 28.5312,4.6219 -1.9479,15.4403 -15.7608,5.59528 -21.5144,5.55818 -26.1133,-0.1669 z m 2696.3134,-139.9314 c -17.2363,-4.7069 -29.6512,-31.1893 -25.4489,-54.301 3.0177,-16.6852 8.0292,-22.7528 24.6465,-29.923 26.3773,-11.3805 50.8715,-2.4888 63.6953,23.1185 18.9431,37.8231 -17.722,73.4431 -62.8929,61.1055 z m 71.0753,-198.85473 c -4.8167,-1.9448 -18.4626,-13.1098 -30.3275,-24.8074 l -21.5714,-21.2691 11.2537,-22.7823 c 6.1966,-12.5305 15.8995,-24.1211 21.5711,-25.7559 5.6771,-1.6367 30.3314,-7.6715 54.7955,-13.4124 l 44.4759,-10.4377 21.5073,16.9377 c 18.4388,14.5235 21.2542,19.8864 19.749,37.6187 -1.4893,17.8328 -6.1808,23.4878 -33.8722,41.0608 -31.3279,19.8811 -69.9669,29.962 -87.5814,22.8476 z M 566.24411,466.47922 c -4.85653,-5.50542 -25.10009,-12.93578 -44.98784,-16.51139 -19.88354,-3.57618 -46.5206,-11.95973 -59.19076,-18.62964 -12.67015,-6.67063 -26.54505,-12.12864 -30.83288,-12.12864 -12.45038,0 -93.43866,-47.85121 -96.94192,-57.27575 -3.49138,-9.39728 -46.85222,-33.42311 -80.79931,-44.76847 -24.90106,-8.32401 -59.58687,-45.67657 -54.67954,-58.88516 1.81868,-4.88369 3.30031,-14.04594 3.30031,-20.36012 0,-6.5947 9.35737,-17.87434 21.98995,-26.50756 l 21.98934,-15.02709 34.93671,14.54919 c 19.21818,8.00177 69.76549,21.66478 112.32882,30.3615 141.42586,28.89768 282.45019,108.53878 317.37747,179.23603 l 11.4824,23.2471 -17.2668,17.83394 c -16.99946,17.55376 -18.15504,17.81056 -73.5718,16.35486 -43.72012,-1.1498 -58.27525,-3.7159 -65.13491,-11.4888 z m 205.63005,-94.69553 c -2.5139,-4.20255 -2.9992,-9.26892 -1.0744,-11.2594 5.2295,-5.39619 10.9235,2.54103 8.1014,11.28395 -1.9622,6.12707 -3.3537,6.12222 -7.0316,-0.03 z M 2917.577,264.95809 c 0.386,-7.02451 1.6798,-8.45269 3.5143,-3.64285 1.6806,4.3519 1.4898,9.55257 -0.4615,11.55589 -1.9478,2.00519 -3.3235,-1.56169 -3.056,-7.91326 z m -396.9271,-59.08455 c -3.9115,-4.86636 -9.2899,-31.15616 -11.9447,-58.42244 -3.7444,-38.42802 -2.9037,-55.474945 3.8198,-75.812435 19.3599,-58.67489 32.8823,-30.90972 30.0327,61.681195 -2.1399,69.31041 -8.2397,89.55013 -21.9,72.55368 z m -496.8591,-42.55726 c 0,-4.77826 2.6365,-10.36498 5.8406,-12.41455 3.2092,-2.04863 5.8377,1.85809 5.8377,8.68818 0,6.82814 -2.6363,12.41498 -5.8377,12.41498 -3.2079,0 -5.8406,-3.90984 -5.8406,-8.68861 z m 958.4519,-30.1267 c 1.1079,-5.53126 4.6451,-9.91379 7.8577,-9.73853 8.6633,0.47239 7.0741,13.96201 -2.0241,17.09109 -4.9133,1.69187 -7.1017,-1.0655 -5.8414,-7.35256 z m 19.6959,-21.21369 c -6.2807,-10.48967 12.2312,-45.062485 39.8043,-74.356915 14.9516,-15.87912 27.1794,-32.5043601 27.1794,-36.94508006 0,-4.44134004 4.0725,-11.56522994 9.0533,-15.83181994 7.4497,-6.38483 10.6391,-6.11429 18.0419,1.52791 8.0918,8.3591599 8.0495,11.1608999 -0.4212,28.12172 -5.1876,10.36115 -11.9569,18.83812 -15.0429,18.83812 -3.0943,0 -9.3402,9.21898 -13.9006,20.48709 -4.5577,11.26821 -11.8813,22.79886 -16.2734,25.62469 -4.393,2.8273 -12.5793,12.59906 -18.1995,21.718705 -10.2718,16.67553 -23.8091,21.52268 -30.22,10.81692 z M 1494.6839,48.115905 c -5.6423,-18.60926 -5.2602,-21.14949 2.9411,-19.54604 5.8787,1.14987 10.1229,9.20588 11.2649,21.38895 2.4079,26.01854 -6.1084,24.91086 -14.2139,-1.84126 z m 501.3851,-35.89027 c 0,-13.2646901 1.2989,-17.9811401 2.6741,-10.4810501 1.3757,7.50001 1.3757,18.3528601 0,24.1175501 -1.4522,5.76461 -2.5981,-0.3716 -2.5213,-13.6365 z m 554.3312,10.94802 c -9.2942,-17.5810501 -8.7786,-29.0205701 1.7196,-38.02148 12.1783,-10.43584 17.8895,6.6072599 10.7039,31.93409 -5.3372,18.79304 -5.6343,18.93973 -12.43,6.08739 z m -264.2345,-9.44087 c -0.3858,-0.83165 -2.7885,-23.2131901 -5.7721,-49.74245 -2.9797,-26.52909 -7.4755,-60.44499 -10.0118,-75.367375 -5.1004,-30.05336 5.9361,-94.0855 18.4954,-107.33766 5.922,-6.24815 10.5973,-6.36773 22.8899,-0.58368 19.3177,9.09012 25.5562,37.8323 15.9296,73.39517 -15.9524,58.923405 -23.3214,93.804155 -26.7171,126.475655 -1.9869,19.06825994 -6.0434,34.66903 -9.0264,34.66903 -2.9802,0 -5.5854,-0.68162 -5.7875,-1.50849 z M 1957.2507,-109.8697 c -1.7198,-5.80344 -5.9597,-34.9704 -9.4632,-64.81586 -3.514,-29.84546 -8.8511,-55.16915 -11.8873,-56.27471 -3.0557,-1.10366 -5.3597,-13.31509 -5.1569,-27.13203 0.3857,-22.87997 0.9172,-23.77686 6.1657,-10.04909 3.1707,8.28999 12.2917,20.49954 20.2229,27.13255 12.3235,10.29562 15.2873,19.8864 20.2615,65.60796 3.2084,29.4519 4.2704,58.61923 2.3677,64.8158 -4.3698,14.214775 -18.4085,14.660895 -22.507,0.713 z m -771.0493,-208.99952 c -28.7535,-31.18069 -54.1867,-61.69015 -56.521,-67.79828 -6.9332,-18.20263 -5.592,-32.37182 3.3999,-35.93768 10.207,-4.04471 52.6821,37.03366 58.4082,56.48604 2.1776,7.4611 6.387,13.56605 9.313,13.56605 2.9421,0 10.3827,10.17445 16.5565,22.61012 6.1765,12.43567 17.8624,29.00391 25.9722,36.81843 14.3178,13.80069 15.3375,31.0456 1.833,30.97984 -3.6668,-0.0151 -30.2007,-25.54423 -58.9577,-56.72452 z m 1780.5461,-106.27477 c -27.8014,-18.34241 -41.2787,-67.28558 -26.4261,-95.94149 7.7427,-14.94038 44.2939,-36.46731 61.9152,-36.46731 23.6264,0 59.9361,28.78246 66.2887,52.54815 8.4843,31.73505 -3.3618,62.56925 -28.7989,75.03672 -33.353,16.3414 -53.5079,17.6735 -72.9789,4.82393 z m -1080.1225,-39.7311 c -7.6081,-11.98931 -8.8164,-20.32189 -4.962,-34.19644 7.1094,-25.6038 18.1908,-26.94015 27.795,-3.35254 7.0023,17.19038 6.9715,22.35071 -0.3854,36.70235 -4.5998,9.18456 -9.306,16.69867 -10.4592,16.69867 -1.1462,0 -6.624,-7.1328 -12.1551,-15.85131 z M 801.06776,-748.34197 c -2.0215,-5.4488 -2.4828,-11.14733 -1.0089,-12.66245 4.6396,-4.79182 15.1214,4.83025 15.1214,13.88156 0,11.82678 -9.5681,10.99945 -14.1071,-1.21835 z m -79.867,-75.79996 c -30.2009,-33.27283 -63.45138,-69.74606 -73.88539,-81.05161 -10.43823,-11.30453 -18.97766,-24.61888 -18.97766,-29.58762 0,-4.96752 -4.03768,-10.63218 -8.97268,-12.58815 -4.93514,-1.95392 -12.88677,-11.36697 -17.66603,-20.91346 -4.78045,-9.54701 -12.56689,-17.35796 -17.29953,-17.35796 -4.73777,0 -8.61084,-2.49235 -8.61084,-5.53903 0,-3.04668 -9.49972,-14.57844 -21.11157,-25.62544 -18.27622,-17.3873 -97.68605,-111.7398 -137.89809,-163.8473 -7.27621,-9.4299 -25.9905,-31.1358 -41.5871,-48.2353 -32.91479,-36.0917 -46.67349,-63.4825 -37.57979,-74.8032 3.33113,-4.1453 9.47657,-7.537 13.65495,-7.537 11.50047,0 42.36161,28.9138 46.94032,43.9781 2.22442,7.3157 9.59128,19.3404 16.36915,26.7204 6.77893,7.3803 17.58005,19.5611 24.00466,27.0683 85.56909,100.0207 111.46953,131.6265 122.52742,149.5271 7.2015,11.6554 17.39229,24.8752 22.64553,29.3781 5.25249,4.5027 9.55083,11.6117 9.55083,15.7989 0,4.1864 6.56832,12.0568 14.59648,17.4889 8.02861,5.4321 14.59497,13.94146 14.59497,18.91074 0,4.96878 6.57162,12.12479 14.59858,15.90225 8.02816,3.77844 14.59978,9.161 14.59978,11.96377 0,2.803 14.99725,21.47714 33.32668,41.49935 18.33513,20.02218 37.66063,43.21872 42.95283,51.54785 5.289,8.32939 15.2521,19.21837 22.1371,24.19802 6.884,4.97963 12.5184,12.65812 12.5184,17.06297 0,4.40432 6.5672,12.45264 14.5948,17.88474 8.0287,5.43235 14.5999,14.95004 14.5999,21.15159 0,26.1191 -17.6387,15.38201 -70.6237,-42.99501 z"
       id="path179" /></g></svg>
