<?xml version="1.0" encoding="UTF-8" standalone="no"?>
<!-- Created with Inkscape (http://www.inkscape.org/) -->

<svg
   width="5000.8691"
   height="4620.3843"
   viewBox="0 0 6923.5156 6396.7486"
   version="1.1"
   id="svg5"
   xml:space="preserve"
   inkscape:version="1.2.2 (b0a8486, 2022-12-01)"
   sodipodi:docname="ink_white_jetbrains.svg"
   xmlns:inkscape="http://www.inkscape.org/namespaces/inkscape"
   xmlns:sodipodi="http://sodipodi.sourceforge.net/DTD/sodipodi-0.dtd"
   xmlns="http://www.w3.org/2000/svg"
   xmlns:svg="http://www.w3.org/2000/svg"><sodipodi:namedview
     id="namedview7"
     pagecolor="#070707"
     bordercolor="#000000"
     borderopacity="0.25"
     inkscape:showpageshadow="2"
     inkscape:pageopacity="0"
     inkscape:pagecheckerboard="0"
     inkscape:deskcolor="#d1d1d1"
     inkscape:document-units="px"
     showgrid="false"
     inkscape:zoom="0.09591687"
     inkscape:cx="2689.8292"
     inkscape:cy="2027.7976"
     inkscape:window-width="1028"
     inkscape:window-height="877"
     inkscape:window-x="0"
     inkscape:window-y="25"
     inkscape:window-maximized="0"
     inkscape:current-layer="layer1" /><defs
     id="defs2" /><g
     inkscape:label="Layer 1"
     inkscape:groupmode="layer"
     id="layer1"
     transform="translate(-800.37223,127.64137)"><path
       style="fill:#ffffff;stroke-width:6.30092"
       d="m 1761.1242,3461.7948 c -5.3776,-14.7417 13.405,-52.4631 28.6634,-57.5561 27.1589,-9.0679 59.4923,37.2033 41.7532,59.7586 -9.6577,12.2841 -65.7696,10.5282 -70.4166,-2.2054 z m 296.3442,-21.2457 c -8.324,-16.9351 -8.1587,-19.5414 1.8489,-29.0806 13.7872,-13.1247 18.5901,-13.1134 32.4531,0.052 10.4955,9.9923 10.5363,11.5602 0.6823,29.0803 -13.1882,23.4842 -23.4333,23.4592 -35.0096,-0.052 z m -682.3996,-473.782 c -4.9722,-20.82 0.4059,-31.8438 12.5567,-26.8503 11.3788,4.5919 11.4836,15.6317 0.4055,31.7099 -8.3963,12.0774 -8.8704,11.8995 -12.8659,-4.8596 z m 808.1295,-36.7527 c -16.6772,-3.1247 -24.3218,-9.6196 -35.0578,-29.7874 -12.7571,-23.9544 -13.0509,-26.947 -4.1644,-42.004 14.5992,-24.7261 32.6343,-38.8304 49.653,-38.8304 19.4738,0 56.976,41.6571 56.976,63.292 0,14.2119 -32.3411,54.2786 -42.1204,52.1773 -2.1708,-0.4716 -13.553,-2.6504 -25.2864,-4.8475 z M 9.5944736,2896.3162 c -35.8433536,-14.1964 -12.9108276,-51.3754 51.6970644,-83.8205 50.244692,-25.2311 89.635982,-24.9484 60.558382,0.4342 -5.06898,4.4252 -9.21309,11.4352 -9.21309,15.5785 0,9.1282 -45.321702,49.7921 -70.734945,63.4643 -12.426796,6.6863 -22.853421,8.0881 -32.3074114,4.3431 z M 329.6042,2589.2155 c -2.705,-7.4093 2.61279,-16.4955 17.0271,-29.0647 28.18119,-24.5824 36.32344,-23.6436 36.32344,4.1877 0,23.0609 -1.58021,24.6206 -32.38907,31.7271 -12.57691,2.9022 -18.06079,1.1103 -20.96147,-6.8501 z m 1558.5997,-186.5408 c -8.4447,-10.7054 -8.4563,-11.9016 -3.0147,-265.0448 2.1721,-99.5175 1.0445,-262.3656 -2.4106,-361.8835 -6.5879,-189.2872 -5.6676,-182.8885 -40.9263,-284.5614 -5.6588,-16.3166 -16.1951,-30.52 -28.1685,-37.9577 -18.4693,-11.477 -20.3785,-11.4874 -55.4805,-0.2944 -19.9966,6.3681 -42.4902,17.7148 -49.987,25.2138 -7.4956,7.4992 -32.9835,27.5203 -56.6339,44.4912 -71.5641,51.3486 -83.9669,61.2207 -138.2343,110.0485 -28.7195,25.8433 -67.419,57.5764 -86.0055,70.5172 -18.5858,12.9403 -40.7008,29.0271 -49.1501,35.7471 -8.4483,6.7206 -21.7894,15.7903 -29.6473,20.1561 -7.8582,4.365 -19.7724,13.7046 -26.4729,20.7533 -13.2519,13.9387 -51.3927,14.8901 -51.3927,1.2813 0,-4.1478 20.7322,-26.252 46.0754,-49.1216 25.3469,-22.8694 52.9892,-54.0018 61.4375,-69.183 14.4743,-26.0181 35.1908,-51.5285 110.3108,-135.8739 17.4131,-19.5481 43.2534,-52.5869 57.4307,-73.4197 14.181,-20.8334 34.7642,-47.6347 45.7496,-59.5607 24.0165,-26.0855 27.1717,-56.3742 7.046,-67.7048 -10.467,-5.8906 -19.5144,-4.1891 -47.6149,8.9516 -48.7202,22.7843 -144.5846,32.1093 -242.6356,23.6015 -41.0629,-3.5644 -81.576,-8.2705 -90.021,-10.4626 l -15.3548,-3.9848 18.4254,-8.5827 c 10.1373,-4.7211 35.2998,-8.7149 55.9112,-8.8745 53.1056,-0.4148 74.2636,-9.7866 88.5413,-39.2337 6.5679,-13.5255 20.5921,-31.0778 31.1755,-39.0054 38.4141,-28.7701 41.8146,-74.0424 6.6157,-87.9885 -15.4105,-6.1058 -14.5709,-6.7459 14.3542,-10.969 45.2994,-6.6154 61.0874,-16.8435 63.3345,-41.0392 1.0861,-11.8984 -2.7327,-27.8518 -9.2161,-38.1673 -6.1137,-9.7479 -20.7892,-38.1244 -32.6187,-63.0595 -19.4021,-40.91614 -24.0482,-46.2053 -47.6098,-54.25619 -22.9846,-7.85229 -26.1153,-11.22622 -26.1153,-28.19259 0,-23.9505 -8.3729,-41.51792 -32.6578,-68.50561 -21.2636,-23.62951 -40.8954,-26.65029 -75.2009,-11.57318 -11.7975,5.18719 -24.8407,8.33749 -28.9853,7.00223 -4.1355,-1.33312 -14.8913,-4.11706 -23.8954,-6.18234 -15.9171,-3.65248 -67.0487,-44.16888 -132.5547,-105.04358 -17.714,-16.45558 -38.4467,-34.27239 -46.0791,-39.59201 -7.6368,-5.32055 -16.6446,-13.13271 -20.0253,-17.36148 -3.3767,-4.22881 -17.19871,-15.4043 -30.71703,-24.8348 C 962.27286,649.49332 945.68363,637.8559 938.92722,633.06149 865.57155,581.02868 795.27859,553.41246 714.68397,544.968 618.52663,534.8927 584.55496,518.87918 576.38928,479.78151 c -2.76591,-13.20513 0.61128,-25.38411 12.54728,-45.25945 l 16.31944,-27.19256 40.03546,3.3816 c 37.85983,3.19814 41.75477,5.11144 71.61169,35.20777 17.36411,17.50529 50.03848,41.41046 72.61189,53.123 39.76851,20.63365 44.15745,21.42935 141.30474,25.60361 l 100.26252,4.30868 30.7132,24.12895 c 16.8976,13.27125 40.4315,29.17436 52.3009,35.3414 11.8688,6.16682 29.8404,17.35207 39.9342,24.85551 10.0926,7.50388 28.9878,17.27307 41.983,21.70961 12.9991,4.43675 30.9658,12.0925 39.9329,17.01231 28.5914,15.69229 66.4229,11.38073 99.8124,-11.37516 30.6727,-20.90728 32.4855,-23.91309 39.0174,-64.73527 l 3.7775,-23.74535 33.9854,3.68928 c 33.4782,3.63475 34.3793,3.28245 60.4128,-23.59434 35.4402,-36.5837 44.3795,-65.76406 34.0772,-111.2459 -9.3491,-41.26432 -44.9338,-114.41383 -61.6553,-126.7335 -6.5517,-4.82498 -11.9097,-14.69712 -11.9097,-21.93702 0,-7.72807 -5.0756,-14.55863 -12.2912,-16.54249 -6.7526,-1.85715 -12.2829,-6.08148 -12.2829,-9.38261 0,-3.30066 -7.4882,-13.86688 -16.6448,-23.47904 -55.0473,-57.81126 -106.2272,-119.57339 -106.2272,-128.187768 0,-5.499846 -5.5112,-14.828271 -12.2512,-20.728642 -8.7424,-7.654881 -10.596,-13.459148 -6.4713,-20.253635 4.9073,-8.082567 7.9861,-7.34866 20.3298,4.846569 7.9984,7.90395 17.7299,14.370407 21.6292,14.370407 3.8996,0 16.1667,13.460479 27.2519,29.911799 11.0902,16.45151 29.1455,38.79669 40.1306,49.65587 10.9774,10.85871 19.9651,23.2361 19.9651,27.50465 0,4.26854 6.9092,12.5246 15.3583,18.3469 8.4485,5.82163 15.3586,14.71536 15.3586,19.76357 0,5.04756 5.0884,12.97734 11.3144,17.6217 6.2226,4.64445 14.86,15.71412 19.1972,24.59983 4.3408,8.88574 15.145,24.17292 24.012,33.97239 8.8721,9.79929 23.0402,25.44318 31.4849,34.76321 20.6722,22.80913 80.056,73.99729 102.0308,87.94779 9.7715,6.20652 30.2146,19.79084 45.4165,30.18788 35.4273,24.22226 55.943,24.51604 88.0788,1.26321 34.6635,-25.08487 56.2005,-69.97237 56.1602,-117.04716 0,-19.54869 -2.2914,-40.41452 -5.0326,-46.37006 -3.6585,-7.92991 -0.8041,-13.72402 10.6913,-21.64949 14.8328,-10.22336 17.1519,-10.10475 41.948,2.15156 42.9401,21.22133 49.2584,21.54528 68.8299,3.52164 11.9413,-10.99812 23.976,-34.30508 35.7532,-69.20517 21.187,-62.7852 28.0036,-97.28121 35.0862,-177.539234 2.934,-33.16291 7.1705,-62.238351 9.4293,-64.611873 10.6474,-11.200099 21.5243,23.26571 21.5243,68.190184 0,54.628702 9.9123,84.901023 33.012,100.818283 14.9123,10.27759 19.1175,10.41322 51.0595,1.63773 19.1447,-5.2591 37.0916,-8.07956 39.8816,-6.26725 10.3345,6.71943 4.4692,15.54414 -16.4356,24.73286 -19.5309,8.58294 -21.5004,11.83956 -21.5004,35.47975 0,53.03464 48.9978,59.4001 135.8308,17.64718 31.7823,-15.27946 47.8322,-26.80482 50.1102,-35.9796 2.0914,-8.39814 8.3366,-13.49991 16.5323,-13.49991 9.2009,0 15.8334,-6.68982 21.9869,-22.17594 4.8438,-12.19657 11.226,-23.7482 14.1846,-25.67117 5.6961,-3.702788 53.3393,-102.97135569 73.573,-153.290755 6.6118,-16.439507 15.3026,-51.335465 19.3173,-77.546585 13.2079,-86.30439 34.222,-148.83337 58.2388,-173.32104 20.081,-20.47334 23.2961,-21.63233 44.5311,-16.05414 25.4438,6.68167 30.9508,18.19682 31.9954,66.92121 0.4059,20.40439 -5.7193,42.62163 -21.4805,77.54632 -32.8271,72.74379 -43.7234,98.875519 -48.7117,116.801509 -2.4521,8.88595 -10.7401,27.787932 -18.3842,42.004455 -7.6377,14.21720747 -17.3811,37.480807 -21.646,51.69778 -4.2688,14.216757 -11.2504,31.665079 -15.5188,38.773472 -4.2692,7.107914 -11.9301,27.962724 -17.0225,46.342814 -5.1004,18.3804 -12.5048,39.78494 -16.4681,47.56552 -3.9388,7.78047 -12.6496,34.84341 -19.3137,60.13959 -6.6643,25.29656 -14.6708,49.23198 -17.7937,53.19049 -3.1353,3.95777 -9.9971,31.15819 -15.2824,60.44485 -7.7697,43.07921 -8.2603,60.037 -2.5723,88.79301 3.8584,19.54907 5.4747,42.02629 3.5774,49.94913 -7.0105,29.39215 8.5895,63.59125 46.569,102.08145 37.0239,37.51562 62.7407,50.36597 100.9496,50.43757 10.5714,0.0172 29.9214,5.12506 43.0085,11.34504 35.1185,16.69613 259.888,16.57684 309.4604,-0.13311 18.5865,-6.27626 51.3974,-14.36929 72.9098,-17.98549 32.8672,-5.52375 41.5247,-4.9167 54.17,3.79615 11.592,7.99036 13.4732,12.36023 8.2076,19.03991 -11.0577,14.01677 -97.7215,40.548 -147.5712,45.17733 -30.8653,2.86464 -58.2462,10.25769 -82.942,22.38899 -20.2701,9.96058 -61.1645,27.79933 -90.8761,39.64149 -43.7239,17.42899 -57.8365,26.51936 -74.0759,47.71216 -32.9678,43.02275 -59.2865,87.44645 -59.2865,100.06868 0,17.61924 45.9581,58.58776 65.7267,58.58776 9.4088,0 23.6742,-7.18995 33.1006,-16.6868 15.795,-15.91911 17.3962,-16.23083 34.7756,-6.77776 28.4214,15.46091 214.203,17.14557 259.5864,2.35329 18.5866,-6.05712 64.2001,-13.80153 101.3717,-17.21005 45.7376,-4.1941 81.025,-11.53457 109.1855,-22.71139 44.0935,-17.50003 73.5045,-20.52494 99.2975,-10.21195 12.8573,5.14295 15.7559,10.5515 15.7559,29.40977 0,20.56148 -2.533,24.24264 -23.0394,33.41248 -15.3022,6.84561 -36.4448,9.64915 -62.9689,8.34977 -67.6926,-3.31544 -129.7812,0.0319 -184.31,9.9335 -28.7229,5.21577 -75.2563,9.49319 -103.4213,9.50463 -41.8992,0.0319 -59.1906,3.36999 -95.2214,18.46945 -24.2184,10.1471 -54.1989,20.4179 -66.6309,22.8242 -36.4492,7.0566 -47.8686,21.2395 -54.0097,67.1023 -4.3896,32.7686 -10.8249,48.473 -33.6156,82.0723 -32.216,47.4862 -38.47,70.2235 -28.2643,102.752 8.2632,26.3332 52.4626,68.2247 88.8508,84.2106 13.244,5.8184 27.9155,16.3376 32.6011,23.3752 4.6869,7.0377 13.5783,12.7955 19.7563,12.7955 16.1057,0 50.4892,16.1934 45.5085,21.4329 -8.4366,8.8771 -55.1275,4.0891 -76.254,-7.8198 -13.4853,-7.6041 -47.1801,-15.1927 -88.9908,-20.0449 -55.9154,-6.4885 -74.2721,-6.2508 -108.6027,1.4099 -22.7263,5.0698 -44.8409,6.8642 -49.1469,3.9884 -14.5741,-9.727 -61.1846,-5.7448 -80.835,6.9057 -10.536,6.7828 -31.4006,15.7607 -46.3689,19.9491 -44.1664,12.3584 -80.2852,63.6669 -80.3132,114.0939 0,25.4168 28.3414,130.9034 49.247,183.1964 6.3864,15.994 13.4683,39.2579 15.7231,51.6971 2.253,12.4401 8.3768,31.3424 13.5985,42.0051 9.7716,19.9491 29.969,95.4966 50.4646,188.7456 6.4149,29.1719 15.7122,59.7055 20.6644,67.8533 4.9518,8.1476 13.172,29.8521 18.269,48.2327 5.0955,18.3801 12.5001,39.7797 16.456,47.5548 3.9385,7.7747 10.9446,38.515 15.5301,68.312 13.0677,84.9289 -4.5091,116.2229 -42.1,74.9493 -18.8593,-20.7002 -53.2779,-120.8307 -53.6235,-155.9787 -0.4059,-36.5442 -15.2063,-101.0632 -41.73,-181.3453 -13.5066,-40.8731 -27.8555,-91.7633 -31.8912,-113.0886 -4.0356,-21.3251 -12.2433,-50.4048 -18.2443,-64.6221 -27.5818,-65.3707 -48.2097,-117.6835 -52.2371,-132.4747 -8.2637,-30.3395 -42.6512,-76.6088 -64.8504,-87.2619 -20.5682,-9.8692 -23.7274,-9.706 -55.6985,2.876 -18.6424,7.3359 -42.0033,22.3884 -51.92,33.4485 -9.9148,11.0603 -29.0844,25.2831 -42.6014,31.6051 -13.5181,6.3218 -34.4471,21.2547 -46.5102,33.184 -19.5059,19.2885 -23.0838,28.1285 -32.3321,79.8498 -23.3858,130.8283 -31.4243,473.4239 -12.6656,539.8612 11.5834,41.0273 8.5813,85.2635 -7.0137,103.3905 -13.0677,15.1853 -17.3967,15.6701 -27.3498,3.0626 z m -1178.41204,-62.778 c -4.05166,-4.2644 -7.37173,-19.7106 -7.37173,-34.3232 0,-29.5813 11.03357,-45.7015 48.1496,-70.3462 30.44363,-20.2142 79.33684,-72.8582 93.6459,-100.8289 22.42837,-43.8451 59.91818,-79.2755 140.81056,-133.0664 18.58151,-12.358 40.70131,-24.2241 49.15011,-26.3696 8.4449,-2.1512 18.7667,-6.7239 22.9352,-10.1743 5.4422,-4.5062 9.3369,-1.4081 13.8225,11.0047 8.0913,22.388 8.2286,21.4414 -5.7314,40.1092 -6.5876,8.8092 -16.4517,32.2097 -21.9224,52.0003 -13.6295,49.3129 -34.6881,74.86 -90.36991,109.6152 -28.68745,17.9102 -72.4394,55.0641 -110.58399,93.9128 -34.70841,35.354 -67.76856,66.9668 -73.46031,70.2505 -14.68678,8.4761 -50.34393,7.3992 -59.07413,-1.7823 z M 3331.8791,2083.4185 c -11.6691,-3.3856 -15.8206,-9.4316 -17.28,-25.158 -1.5674,-17.0831 0.9241,-22.0608 14.2973,-28.4767 20.0973,-9.6325 34.3425,-1.6281 40.5524,22.7928 3.0149,11.8463 1.5286,20.4056 -4.7343,26.9703 -9.9083,10.4235 -10.1586,10.4524 -32.8354,3.8716 z m -398.8454,-239.9571 c -57.8006,-21.8661 -79.9722,-53.594 -82.4922,-118.0525 -0.8437,-22.0735 -3.6984,-44.952 -6.2983,-50.8413 -3.4966,-7.9313 4.2637,-20.1695 29.9608,-47.1949 40.9467,-43.0711 52.9123,-48.7234 103.1521,-48.7234 32.4691,0 41.9595,2.9347 66.5427,20.5799 52.9574,38.0103 74.4691,93.032 60.9719,155.9239 -8.7792,40.8946 -20.1743,58.0981 -54.1588,81.7785 -33.8482,23.5816 -67.6436,25.4572 -117.6782,6.5298 z m -421.8216,-28.8328 c -5.5751,-8.9454 -14.0239,-16.2645 -18.7788,-16.2645 -11.5278,0 -63.6644,-50.9514 -63.6644,-62.2141 0,-28.9259 64.6131,8.8658 101.0336,59.0961 15.5443,21.4346 15.6274,22.0868 3.7378,28.7902 -10.1123,5.6928 -13.9028,4.0952 -22.3123,-9.4077 z m -441.1302,-33.8223 c -2.0906,-2.1902 -3.7785,-13.3233 -3.7785,-24.7395 0,-16.9705 3.377,-22.2223 18.4334,-28.7872 10.1333,-4.4164 18.4695,-11.3125 18.5219,-15.3237 0.4057,-12.874 12.0022,11.5981 12.0992,25.0174 0,13.3996 -38.5874,50.8597 -45.2678,43.833 z m 1143.4389,0.7707 c -2.0095,-2.1231 -2.0907,-8.1838 -0.395,-13.466 2.8543,-7.8277 4.4617,-8.0094 8.6975,-0.9821 9.0561,15.0258 2.5342,26.0821 -8.5282,14.4503 z m -28.0436,-132.389 c -18.8552,-2.6675 -38.398,-10.0424 -46.0755,-17.3895 -7.3358,-7.0185 -19.5548,-16.134 -27.1593,-20.2578 -10.2058,-5.5345 -13.8193,-13.2172 -13.8193,-29.3489 0,-12.0184 3.4563,-23.0834 7.6731,-24.5889 4.2247,-1.5057 28.2211,4.5058 53.3224,13.3583 95.1696,33.5634 114.1978,90.6898 26.0586,78.2268 z m -228.3593,-125.6304 c -8.4493,-5.2321 -28.4502,-15.2102 -44.4474,-22.1737 -38.6674,-16.8295 -34.8735,-32.592 7.8421,-32.592 40.5441,0 57.1768,7.9486 72.0207,34.4196 l 12.6417,22.5336 -13.2769,3.7462 c -17.5368,4.9488 -17.0865,5.0263 -34.7802,-5.9337 z m -142.8408,-68.2073 c -17.3152,-10.6083 -12.4278,-18.8688 11.1546,-18.8688 24.969,0 47.7715,10.5956 42.4101,19.7106 -4.7436,8.0777 -39.906,7.525 -53.5647,-0.8412 z m -1737.0968,-63.2978 c -38.4019,-11.5524 0,-36.924 44.5078,-29.4127 28.9966,4.8927 34.6401,13.8313 13.9514,22.1045 -25.5148,10.2045 -41.9869,12.264 -58.4592,7.3082 z m 92.1514,-197.1703 c 0,-5.3066 37.5742,-7.9812 40.5646,-2.8881 1.729,2.9605 -6.6726,5.3851 -18.6991,5.3851 -12.0264,0 -21.8655,-1.1264 -21.8655,-2.4979 z M 960.45111,1158.446 c 0,-3.4663 10.1369,-6.3009 22.5249,-6.3009 26.33139,0 25.44289,2.9971 -2.53299,8.6037 -11.47189,2.2964 -19.96532,1.3201 -19.96532,-2.3041 z m 64.83389,-31.5979 c -1.9679,-3.3667 -0.9628,-7.8236 2.2104,-9.9041 3.2159,-2.082 7.4362,-1.0273 9.4134,2.3376 1.9688,3.3672 1.0054,7.8235 -2.2094,9.9046 -3.2164,2.0821 -7.4373,1.0306 -9.4144,-2.3378 z m 2616.8455,-71.7535 c -6.7607,-3.1687 -21.8131,-14.2779 -33.4577,-24.6868 -19.3056,-17.2638 -21.3757,-22.5365 -23.571,-60.06672 -3.054,-52.27262 4.1969,-71.45732 36.2161,-95.85423 21.8337,-16.6374 31.2913,-19.60204 62.5428,-19.60204 35.846,0 37.6066,0.82738 66.6556,31.3876 27.2519,28.66608 29.8405,34.03012 29.8405,61.85607 0,35.38441 -21.8895,80.20752 -49.1382,100.61802 -18.4174,13.7918 -65.9876,17.1816 -89.0881,6.3481 z m -4239.76479,-18.6537 c -25.24005,-16.1899 -45.39176,-46.7766 -45.39176,-68.89829 0,-45.96245 47.04813,-93.27216 92.75593,-93.27216 55.18942,0 99.47714,76.655 74.5712,129.06975 -18.56403,39.07 -84.6571,57.0106 -121.93537,33.1007 z m 1653.31079,-32.374 c -45.1026,-16.48203 -52.2212,-20.47397 -52.2212,-29.28598 0,-15.51067 27.3199,-21.86751 71.1643,-16.55896 49.9544,6.04822 64.2203,11.1937 75.0967,27.09566 6.6119,9.66189 16.7372,11.73495 57.3381,11.73495 36.7139,0 48.6597,2.06368 46.7624,8.07733 -4.3369,13.716 -159.9832,12.8804 -198.1403,-1.0612 z m 205.9823,-16.49084 c -9.3249,-11.82052 -1.1241,-16.37217 29.5235,-16.37217 30.6283,0 30.021,4.95373 -2.0496,16.54865 -16.5837,5.99695 -22.6378,5.95721 -27.4768,-0.17882 z m 2837.1019,-149.9761 c -18.1364,-5.04482 -31.1995,-33.42814 -26.7778,-58.19891 3.1753,-17.88288 8.4485,-24.38603 25.9335,-32.07093 27.7545,-12.19747 53.5277,-2.66745 67.0211,24.77798 19.9322,40.53814 -18.6473,78.71504 -66.1768,65.49186 z m 74.7865,-213.12913 c -5.0683,-2.0844 -19.4267,-14.05087 -31.9111,-26.58816 l -22.6977,-22.79585 11.8412,-24.41769 c 6.5202,-13.42997 16.7297,-25.85258 22.6975,-27.60473 5.9735,-1.7542 31.9151,-8.22219 57.6566,-14.37519 l 46.7982,-11.18695 22.6304,18.15354 c 19.4015,15.56604 22.3639,21.3139 20.7801,40.31908 -1.567,19.1129 -6.5034,25.17383 -35.6408,44.00827 -32.9637,21.30824 -73.6202,32.11277 -92.1544,24.48768 z M 219.31966,420.88074 c -5.11011,-5.90063 -26.41069,-13.86435 -47.33689,-17.69663 -20.92176,-3.8329 -48.94968,-12.81824 -62.28141,-19.96694 -13.33173,-7.14946 -27.931109,-12.99927 -32.44283,-12.99927 -13.100485,0 -98.317582,-51.28611 -102.003766,-61.38718 -3.673685,-10.07184 -49.298613,-35.82233 -85.018264,-47.98209 -26.20127,-8.92153 -62.69819,-48.95538 -57.53463,-63.11211 1.91365,-5.23427 3.47264,-15.0542 3.47264,-21.82164 0,-7.06808 9.84597,-19.15742 23.13815,-28.41036 l 23.13752,-16.10578 36.760935,15.59358 c 20.221663,8.57617 73.4083064,23.21994 118.19409,32.54095 C 186.21564,210.50531 334.60358,295.86329 371.3546,371.63541 l 12.08196,24.91584 -18.16839,19.11412 c -17.88709,18.81383 -19.10301,19.08906 -77.41337,17.52887 -46.00298,-1.23234 -61.31811,-3.98265 -68.53594,-12.3135 z M 435.68672,319.38766 c -2.64517,-4.50421 -3.15581,-9.93426 -1.1305,-12.06763 5.50256,-5.78355 11.49387,2.72344 8.52442,12.09395 -2.06466,6.56689 -3.52882,6.56169 -7.39876,-0.0322 z M 2693.4278,204.89379 c 0.4061,-7.52874 1.7675,-9.05944 3.6979,-3.90434 1.7683,4.6643 1.5675,10.23829 -0.4857,12.38541 -2.0495,2.14912 -3.497,-1.67379 -3.2155,-8.4813 z m -417.6526,-63.32581 c -4.1158,-5.21569 -9.7751,-33.39265 -12.5685,-62.616191 -3.9399,-41.186499 -3.0553,-59.457108 4.0193,-81.2544784 20.3707,-62.8867556 34.5993,-33.1285146 31.6008,66.1088524 -2.2516,74.285727 -8.6699,95.978317 -23.0435,77.761817 z M 1752.9724,95.955827 c 0,-5.121262 2.7742,-11.10901 6.1456,-13.305705 3.3768,-2.195693 6.1425,1.99147 6.1425,9.311845 0,7.318276 -2.7739,13.306163 -6.1425,13.306163 -3.3754,0 -6.1456,-4.1905 -6.1456,-9.312303 z M 2761.4701,63.666535 c 1.1657,-5.92831 4.8876,-10.625428 8.2679,-10.437589 9.1157,0.5063 7.4435,14.964244 -2.1298,18.317939 -5.1697,1.813322 -7.4725,-1.141985 -6.1464,-7.88035 z m 20.7243,-22.736476 c -6.6087,-11.242649 12.8698,-48.2972045 41.8826,-79.69448 15.7324,-17.018968 28.5986,-34.837627 28.5986,-39.597108 0,-4.760157 4.2851,-12.395422 9.5261,-16.968283 7.8387,-6.843148 11.1946,-6.553188 18.9839,1.637592 8.5143,8.959204 8.4699,11.962065 -0.4432,30.140386 -5.4584,11.104904 -12.5812,20.190372 -15.8284,20.190372 -3.2558,0 -9.8278,9.880752 -14.6264,21.957723 -4.7956,12.0770731 -12.5016,24.4354258 -17.1231,27.4641086 -4.6223,3.0302479 -13.2361,13.5034514 -19.1497,23.2777344 -10.8082,17.87255 -25.0523,23.067646 -31.798,11.593398 z M 1196.2381,-27.513993 c -5.9369,-19.94509 -5.5348,-22.667664 3.0947,-20.949115 6.1856,1.232419 10.6514,9.866713 11.8531,22.924316 2.5336,27.8862362 -6.4274,26.6990391 -14.9561,-1.973429 z m 527.565,-38.466576 c 0,-14.21687 1.3667,-19.271888 2.8138,-11.233418 1.4475,8.038386 1.4475,19.670286 0,25.848788 -1.528,6.178409 -2.7338,-0.398275 -2.653,-14.61537 z m 583.2758,11.733898 c -9.7796,-18.843069 -9.2371,-31.103754 1.8093,-40.750781 12.8143,-11.184958 18.8237,7.081551 11.2628,34.226422 -5.6159,20.142058 -5.9285,20.299278 -13.079,6.524359 z m -278.0316,-10.118566 c -0.406,-0.891342 -2.9341,-24.879505 -6.0735,-53.313113 -3.1353,-28.43343 -7.8658,-64.78392 -10.5345,-80.77749 -5.3668,-32.21068 6.2459,-100.83924 19.4611,-115.04268 6.2311,-6.69667 11.1506,-6.82483 24.085,-0.62558 20.3265,9.74263 26.8907,40.54802 16.7615,78.6637 -16.7854,63.1531 -24.5392,100.53772 -28.1122,135.554475 -2.0907,20.437041 -6.359,37.15768 -9.4977,37.15768 -3.1358,0 -5.8771,-0.730551 -6.0897,-1.616776 z M 1682.9579,-196.84029 c -1.8095,-6.22003 -6.2708,-37.48069 -9.9573,-69.46855 -3.6974,-31.98786 -9.3133,-59.12936 -12.508,-60.31428 -3.2152,-1.18288 -5.6395,-14.27088 -5.4262,-29.07965 0.4059,-24.52236 0.9651,-25.48363 6.4877,-10.77044 3.3363,8.88508 12.9335,21.97106 21.2788,29.08021 12.967,11.03466 16.0855,21.3139 21.3195,70.31749 3.3759,31.56605 4.4934,62.8271 2.4913,69.46848 -4.598,15.23516 -19.3697,15.7133 -23.6822,0.76418 z M 871.64817,-420.84244 c -30.25494,-33.41894 -57.0161,-66.11845 -59.47233,-72.66505 -7.29515,-19.50927 -5.88395,-34.69556 3.57747,-38.51739 10.73994,-4.33505 55.43296,39.69204 61.45804,60.54077 2.29126,7.99668 6.72046,14.53987 9.79926,14.53987 3.09567,0 10.9248,10.90481 17.42096,24.23315 6.499,13.32834 18.79511,31.0859 27.32833,39.46137 15.06542,14.79134 16.13842,33.27415 1.92877,33.20366 -3.85827,-0.0162 -31.77762,-27.37787 -62.03619,-60.79638 z m 1873.51763,-113.9035 c -29.2531,-19.65909 -43.4341,-72.11555 -27.8059,-102.82847 8.1469,-16.01284 46.6067,-39.08504 65.148,-39.08504 24.8601,0 63.0657,30.84856 69.75,56.32022 8.9274,34.01308 -3.5373,67.06066 -30.3026,80.42309 -35.0945,17.51443 -56.3019,18.94216 -76.7895,5.1702 z m -1136.5213,-42.58312 c -8.0054,-12.84994 -9.2767,-21.78066 -5.2211,-36.65116 7.4806,-27.44173 19.1406,-28.87401 29.2463,-3.5932 7.3679,18.42435 7.3355,23.95511 -0.4055,39.33695 -4.84,9.84387 -9.7919,17.89736 -11.0054,17.89736 -1.2059,0 -6.9698,-7.64481 -12.7897,-16.98916 z M 466.40467,-881.1441 c -2.12705,-5.83987 -2.61244,-11.94751 -1.06158,-13.57136 4.88186,-5.13582 15.91096,5.17698 15.91096,14.87804 0,12.67574 -10.06769,11.78903 -14.8437,-1.30584 z m -84.03728,-81.24105 c -31.77784,-35.66127 -66.7645,-74.75275 -77.74332,-86.86975 -10.98327,-12.116 -19.96859,-26.3861 -19.96859,-31.7115 0,-5.3241 -4.2485,-11.3954 -9.44118,-13.4918 -5.19283,-2.0941 -13.55966,-12.1829 -18.58847,-22.4147 -5.03006,-10.2324 -13.22307,-18.604 -18.20283,-18.604 -4.98515,0 -9.06045,-2.6712 -9.06045,-5.9366 0,-3.2654 -9.99575,-15.625 -22.21391,-27.4649 -19.23053,-18.6355 -102.78675,-119.7608 -145.098481,-175.6088 -7.656139,-10.1068 -27.34759,-33.3708 -43.758575,-51.6977 -34.633439,-38.6826 -49.110553,-68.0396 -39.542027,-80.1728 3.505073,-4.443 9.9714,-8.0781 14.367952,-8.0781 12.1009721,0 44.573531,30.9893 49.391314,47.135 2.340569,7.8409 10.092087,20.7287 17.223866,28.6384 7.132907,7.9102 18.498009,20.9653 25.258075,29.0114 90.037106,107.2005 117.289936,141.075 128.925216,160.2606 7.57753,12.4921 18.30043,26.6609 23.82797,31.487 5.52675,4.8259 10.04953,12.4452 10.04953,16.9329 0,4.487 6.91128,12.9224 15.35863,18.7444 8.44783,5.822 15.35705,14.9422 15.35705,20.2682 0,5.3255 6.91476,12.9951 15.36085,17.0437 8.44735,4.0497 15.36211,9.8186 15.36211,12.8226 0,3.0042 15.78033,23.0189 35.06684,44.4783 19.2925,21.4594 39.62708,46.3211 45.19562,55.2481 5.56516,8.92732 16.04849,20.59797 23.29299,25.93502 7.24345,5.33714 13.17205,13.56676 13.17205,18.28786 0,4.72045 6.9101,13.34652 15.35687,19.16858 8.44792,5.82225 15.36224,16.02314 15.36224,22.66988 0,27.99399 -18.55971,16.48613 -74.31134,-46.08129 z"
       id="path179" /></g></svg>
